<svg width="380" height="100" viewBox="0 0 380 100" fill="none" xmlns="http://www.w3.org/2000/svg">
<path d="M17.24 14.344C17.24 12.8933 17.368 11.912 17.624 11.4C17.88 10.888 18.4773 10.632 19.416 10.632C20.44 10.632 21.5493 11.528 22.744 13.32C24.024 15.112 24.664 17.032 24.664 19.08C24.664 24.8827 21.9333 37.0853 16.472 55.688C11.096 74.2053 8.408 84.36 8.408 86.152C8.408 87.944 8.792 89.224 9.56 89.992C10.4133 90.76 11.4373 91.144 12.632 91.144C23.2133 91.144 34.3493 89.3947 46.04 85.896C49.88 84.7867 52.0987 84.232 52.696 84.232C53.3787 84.232 53.8053 84.3173 53.976 84.488C54.1467 84.5733 54.232 84.9147 54.232 85.512C54.232 88.072 49.6667 90.9307 40.536 94.088C31.4053 97.16 22.8293 98.696 14.808 98.696C10.8827 98.696 7.46933 97.7147 4.568 95.752C1.752 93.704 0.344001 91.144 0.344001 88.072C0.344001 85 3.16 73.3947 8.792 53.256C14.424 33.1173 17.24 20.1467 17.24 14.344ZM93.899 85.64C97.8243 81.544 100.768 76.936 102.731 71.816C104.779 66.696 105.803 62.1733 105.803 58.248C105.803 54.3227 105.12 50.9947 103.755 48.264C102.475 45.448 100.726 43.528 98.507 42.504C91.4243 43.8693 85.6217 48.4347 81.099 56.2C76.5763 63.9653 74.315 72.072 74.315 80.52C74.315 86.92 76.491 90.888 80.843 92.424C85.6217 91.912 89.9737 89.6507 93.899 85.64ZM70.859 59.4C73.675 52.9147 77.515 47.5387 82.379 43.272C87.3283 38.92 92.2777 36.744 97.227 36.744C102.262 36.744 106.187 38.8773 109.003 43.144C111.904 47.3253 113.355 52.232 113.355 57.864C113.355 67.9333 110.07 77.2773 103.499 85.896C96.9283 94.5147 89.3337 98.824 80.715 98.824C76.4483 98.824 73.035 96.904 70.475 93.064C67.915 89.224 66.635 84.2747 66.635 78.216C66.635 72.072 68.043 65.8 70.859 59.4ZM157.406 36.744C160.137 36.744 162.611 38.1947 164.83 41.096C167.134 43.912 168.286 46.1307 168.286 47.752C168.286 49.288 167.774 50.056 166.75 50.056C165.726 50.056 164.233 49.1173 162.27 47.24C160.307 45.3627 158.259 44.424 156.126 44.424C153.993 44.424 150.622 45.9173 146.014 48.904C141.406 51.8053 139.102 54.7067 139.102 57.608C139.102 59.656 141.961 62.5147 147.678 66.184C150.067 67.72 152.457 69.384 154.846 71.176C160.563 75.4427 163.422 79.624 163.422 83.72C163.422 87.816 161.246 91.3573 156.894 94.344C152.542 97.3307 147.465 98.824 141.662 98.824C135.859 98.824 130.654 97.3733 126.046 94.472C121.523 91.5707 119.262 88.968 119.262 86.664C119.262 85.896 119.475 85.256 119.902 84.744C120.414 84.232 120.969 83.976 121.566 83.976C122.249 83.976 123.358 84.616 124.894 85.896C129.758 89.6507 134.793 91.528 139.998 91.528C150.067 91.528 155.102 88.8827 155.102 83.592C155.102 81.288 153.822 79.0267 151.262 76.808C148.787 74.504 146.057 72.5413 143.07 70.92C140.083 69.2987 137.31 67.2507 134.75 64.776C132.275 62.3013 131.038 59.784 131.038 57.224C131.038 52.7867 134.238 48.264 140.638 43.656C147.123 39.048 152.713 36.744 157.406 36.744ZM195.716 46.6C193.839 54.1093 191.535 62.2587 188.804 71.048C186.159 79.752 184.836 85.256 184.836 87.56C184.836 89.864 185.988 91.016 188.292 91.016C192.388 91.016 196.569 90.1627 200.836 88.456C205.103 86.664 207.407 85.768 207.748 85.768C208.943 85.768 209.54 86.28 209.54 87.304C209.54 89.352 207.151 91.784 202.372 94.6C197.679 97.416 193.369 98.824 189.444 98.824C185.604 98.824 182.575 97.928 180.356 96.136C178.137 94.2587 177.028 92.1253 177.028 89.736C177.028 87.3467 177.583 84.104 178.692 80.008C179.801 75.912 181.337 70.664 183.3 64.264C185.348 57.7787 186.927 52.4027 188.036 48.136C183.343 48.9893 180.484 49.416 179.46 49.416C178.521 49.416 177.54 48.9467 176.516 48.008C175.492 47.0693 174.98 46.216 174.98 45.448C174.98 43.912 179.972 42.1627 189.956 40.2C191.407 33.1173 192.132 27.144 192.132 22.28C192.132 19.72 192.772 18.44 194.052 18.44C195.076 18.44 196.271 19.1653 197.636 20.616C199.087 21.9813 199.812 23.56 199.812 25.352C199.812 27.0587 199.044 31.624 197.508 39.048C203.481 38.1947 207.705 37.768 210.18 37.768C214.617 37.768 216.836 38.664 216.836 40.456C216.836 41.48 215.812 42.2907 213.764 42.888L195.716 46.6ZM243.148 15.368C245.452 12.6373 254.455 11.272 270.156 11.272C285.943 11.272 293.836 12.0827 293.836 13.704C293.836 14.8987 292.3 15.752 289.228 16.264C286.241 16.6907 282.529 17.0747 278.092 17.416C272.545 17.8427 269.303 18.0987 268.364 18.184C267.511 18.184 266.188 18.2693 264.396 18.44C262.689 18.5253 259.916 18.824 256.076 19.336C252.321 19.848 250.231 20.1467 249.804 20.232V21.512C249.804 27.3147 247.884 37.0853 244.044 50.824L248.012 50.952C252.449 50.952 257.057 50.7387 261.836 50.312C266.7 49.8853 270.54 49.672 273.356 49.672C276.257 49.672 277.708 50.056 277.708 50.824C277.708 55.2613 266.273 57.48 243.404 57.48C242.807 57.48 242.38 57.4373 242.124 57.352C236.748 74.248 234.06 84.36 234.06 87.688C234.06 88.968 234.444 89.992 235.212 90.76C236.065 91.4427 237.089 91.784 238.284 91.784C249.121 91.784 260.428 90.0773 272.204 86.664C276.215 85.5547 278.519 85 279.116 85C280.14 85 280.652 85.768 280.652 87.304C280.652 89.608 275.916 92.2107 266.444 95.112C257.057 98.0133 248.396 99.464 240.46 99.464C236.535 99.464 233.164 98.4827 230.348 96.52C227.532 94.472 226.124 92.0827 226.124 89.352C226.124 85.4267 227.447 79.1973 230.092 70.664C232.823 62.0453 235.511 52.9147 238.156 43.272C240.887 33.6293 242.252 25.5227 242.252 18.952C242.252 17.2453 242.38 16.264 242.636 16.008C242.977 15.6667 243.148 15.4533 243.148 15.368ZM319.374 8.84C319.374 27.1013 315.107 52.0187 306.574 83.592C303.843 93.7467 301.881 98.824 300.686 98.824C299.833 98.824 298.937 98.2267 297.998 97.032C297.059 95.752 296.59 94.6427 296.59 93.704C296.59 92.7653 297.87 87.2613 300.43 77.192C302.99 67.0373 305.55 54.9627 308.11 40.968C310.67 26.888 311.95 14.6 311.95 4.104C311.95 2.824 312.035 1.97066 312.206 1.544C312.377 1.11733 312.846 0.903992 313.614 0.903992C314.467 0.903992 315.619 1.79999 317.07 3.592C318.606 5.29866 319.374 7.04799 319.374 8.84ZM368.193 53.768C365.292 56.7547 362.646 60.3387 360.257 64.52C357.868 68.616 356.673 72.328 356.673 75.656C356.673 78.984 357.612 81.928 359.489 84.488C361.366 86.9627 363.414 88.84 365.633 90.12C367.937 91.4 370.028 92.6373 371.905 93.832C373.782 94.9413 374.721 95.88 374.721 96.648C374.721 98.0987 373.526 98.824 371.137 98.824C367.212 98.824 362.732 96.648 357.697 92.296C352.748 87.944 350.273 83.1227 350.273 77.832V76.424C342.934 85.896 338.028 91.9973 335.553 94.728C333.164 97.4587 331.457 98.824 330.433 98.824C329.409 98.824 328.47 98.1413 327.617 96.776C326.849 95.3253 326.465 93.9173 326.465 92.552C326.465 91.1867 327.83 85.6827 330.561 76.04C333.292 66.312 336.022 54.664 338.753 41.096C341.484 27.528 342.849 15.2827 342.849 4.35999C342.849 2.99466 343.02 2.09866 343.361 1.672C343.702 1.15999 344.385 0.903992 345.409 0.903992C346.433 0.903992 347.457 1.84266 348.481 3.71999C349.59 5.512 350.145 7.432 350.145 9.48C350.145 28.2533 344.854 54.1947 334.273 87.304C348.78 66.056 360.129 51.08 368.321 42.376C371.905 38.6213 374.209 36.744 375.233 36.744C376.342 36.744 377.366 37.256 378.305 38.28C379.244 39.2187 379.713 40.072 379.713 40.84C379.713 41.5227 378.518 43.1013 376.129 45.576C373.74 48.0507 371.094 50.7813 368.193 53.768Z" fill="black"/>
</svg>
